<svg width="1200" height="630" viewBox="0 0 1200 630" fill="none" xmlns="http://www.w3.org/2000/svg">
  <rect width="1200" height="630" rx="48" fill="#F7F7F2"/>
  <rect x="18" y="18" width="1164" height="594" rx="36" stroke="#111318" stroke-opacity="0.08" fill="url(#surface)"/>

  <g opacity="0.5">
    <path d="M86 128H1114" stroke="#111318" stroke-opacity="0.06" stroke-width="2"/>
    <path d="M86 212H1114" stroke="#111318" stroke-opacity="0.06" stroke-width="2"/>
    <path d="M86 296H1114" stroke="#111318" stroke-opacity="0.06" stroke-width="2"/>
    <path d="M86 380H1114" stroke="#111318" stroke-opacity="0.06" stroke-width="2"/>
    <path d="M86 464H1114" stroke="#111318" stroke-opacity="0.06" stroke-width="2"/>
    <path d="M86 548H1114" stroke="#111318" stroke-opacity="0.06" stroke-width="2"/>
    <path d="M202 82V566" stroke="#111318" stroke-opacity="0.06" stroke-width="2"/>
    <path d="M370 82V566" stroke="#111318" stroke-opacity="0.06" stroke-width="2"/>
    <path d="M538 82V566" stroke="#111318" stroke-opacity="0.06" stroke-width="2"/>
    <path d="M706 82V566" stroke="#111318" stroke-opacity="0.06" stroke-width="2"/>
    <path d="M874 82V566" stroke="#111318" stroke-opacity="0.06" stroke-width="2"/>
    <path d="M1042 82V566" stroke="#111318" stroke-opacity="0.06" stroke-width="2"/>
  </g>

  <g opacity="0.68">
    <path d="M160 192C244 154 316 222 398 188C480 154 556 210 642 182C728 154 816 216 912 184" stroke="#1F8F6A" stroke-opacity="0.42" stroke-width="3" stroke-linecap="round"/>
    <path d="M150 290C240 236 316 326 406 280C496 234 590 324 680 278C770 232 870 304 964 266" stroke="#111318" stroke-opacity="0.18" stroke-width="2.5" stroke-linecap="round"/>
    <path d="M184 414C270 372 340 444 422 410C504 376 580 446 670 412C760 378 842 432 930 400" stroke="#1F8F6A" stroke-opacity="0.3" stroke-width="3" stroke-linecap="round"/>
    <path d="M432 160L590 304L744 176" stroke="#111318" stroke-opacity="0.12" stroke-width="2.5" stroke-linecap="round"/>
    <path d="M410 450L590 304L790 456" stroke="#111318" stroke-opacity="0.12" stroke-width="2.5" stroke-linecap="round"/>
    <circle cx="590" cy="304" r="16" fill="#1F8F6A"/>
    <circle cx="590" cy="304" r="36" fill="#1F8F6A" fill-opacity="0.08"/>
    <circle cx="330" cy="212" r="6" fill="#1F8F6A" fill-opacity="0.8"/>
    <circle cx="846" cy="204" r="6" fill="#1F8F6A" fill-opacity="0.7"/>
    <circle cx="748" cy="274" r="5" fill="#111318" fill-opacity="0.24"/>
    <circle cx="286" cy="392" r="6" fill="#1F8F6A" fill-opacity="0.68"/>
    <circle cx="826" cy="398" r="6" fill="#111318" fill-opacity="0.18"/>
  </g>

  <g transform="translate(118 94)">
    <rect x="0" y="0" width="248" height="54" rx="27" fill="#FFFFFF" stroke="#111318" stroke-opacity="0.08"/>
    <text
      x="124"
      y="35"
      text-anchor="middle"
      fill="#1F8F6A"
      font-family="Inter, Arial, Helvetica, sans-serif"
      font-size="23"
      font-weight="700"
      letter-spacing="-0.4"
    >Israeli Food Intelligence</text>
  </g>

  <g transform="translate(278 188)">
    <text
      x="0"
      y="118"
      fill="#111318"
      font-family="Inter, Arial, Helvetica, sans-serif"
      font-size="144"
      font-weight="800"
      letter-spacing="-10"
    >Bari</text>

    <g transform="translate(292 16) scale(1.6)">
      <g stroke="#111318" stroke-linecap="round" stroke-width="3.2">
        <path d="M16 16H32"/>
        <path d="M12 24H36"/>
        <path d="M16 32H32"/>
      </g>
      <g fill="#111318">
        <circle cx="24" cy="8" r="2.7"/>
        <circle cx="16" cy="16" r="2.35"/>
        <circle cx="32" cy="16" r="2.35"/>
        <circle cx="12" cy="24" r="2.35"/>
        <circle cx="36" cy="24" r="2.35"/>
        <circle cx="16" cy="32" r="2.35"/>
        <circle cx="32" cy="32" r="2.35"/>
        <circle cx="24" cy="40" r="2.7"/>
      </g>
      <g fill="#1F8F6A">
        <circle cx="24" cy="16" r="2.45"/>
        <circle cx="24" cy="24" r="2.65"/>
        <circle cx="24" cy="32" r="2.45"/>
      </g>
      <path d="M24 16V32" stroke="#1F8F6A" stroke-linecap="round" stroke-width="3.2"/>
    </g>

    <text
      x="2"
      y="176"
      fill="#111318"
      fill-opacity="0.72"
      font-family="Inter, Arial, Helvetica, sans-serif"
      font-size="34"
      font-weight="600"
      letter-spacing="-0.3"
    >Products, ingredients and shelf comparisons</text>
  </g>

  <defs>
    <radialGradient id="surface" cx="0" cy="0" r="1" gradientUnits="userSpaceOnUse" gradientTransform="translate(910 128) rotate(130.717) scale(742.775 1135.61)">
      <stop stop-color="#FFFFFF"/>
      <stop offset="0.7" stop-color="#FBFBF7"/>
      <stop offset="1" stop-color="#F1F1EA"/>
    </radialGradient>
  </defs>
</svg>
