<svg width="800" height="800" viewBox="0 0 800 800" fill="none" xmlns="http://www.w3.org/2000/svg">
  <rect width="800" height="800" rx="160" fill="#F7F7F2"/>
  <rect x="56" y="56" width="688" height="688" rx="132" fill="url(#bgGlow)" stroke="#111318" stroke-opacity="0.08"/>
  <g opacity="0.22">
    <path d="M148 240H652" stroke="#111318" stroke-opacity="0.08" stroke-width="2"/>
    <path d="M148 400H652" stroke="#111318" stroke-opacity="0.08" stroke-width="2"/>
    <path d="M148 560H652" stroke="#111318" stroke-opacity="0.08" stroke-width="2"/>
    <path d="M240 148V652" stroke="#111318" stroke-opacity="0.08" stroke-width="2"/>
    <path d="M400 148V652" stroke="#111318" stroke-opacity="0.08" stroke-width="2"/>
    <path d="M560 148V652" stroke="#111318" stroke-opacity="0.08" stroke-width="2"/>
  </g>

  <g transform="translate(176 298)">
    <text
      x="0"
      y="128"
      fill="#111318"
      font-family="Inter, Arial, Helvetica, sans-serif"
      font-size="176"
      font-weight="800"
      letter-spacing="-12"
    >Bari</text>

    <g transform="translate(352 18) scale(1.84)">
      <g stroke="#111318" stroke-linecap="round" stroke-width="3.2">
        <path d="M16 16H32"/>
        <path d="M12 24H36"/>
        <path d="M16 32H32"/>
      </g>
      <g fill="#111318">
        <circle cx="24" cy="8" r="2.7"/>
        <circle cx="16" cy="16" r="2.35"/>
        <circle cx="32" cy="16" r="2.35"/>
        <circle cx="12" cy="24" r="2.35"/>
        <circle cx="36" cy="24" r="2.35"/>
        <circle cx="16" cy="32" r="2.35"/>
        <circle cx="32" cy="32" r="2.35"/>
        <circle cx="24" cy="40" r="2.7"/>
      </g>
      <g fill="#1F8F6A">
        <circle cx="24" cy="16" r="2.45"/>
        <circle cx="24" cy="24" r="2.65"/>
        <circle cx="24" cy="32" r="2.45"/>
      </g>
      <path d="M24 16V32" stroke="#1F8F6A" stroke-linecap="round" stroke-width="3.2"/>
    </g>
  </g>

  <defs>
    <radialGradient id="bgGlow" cx="0" cy="0" r="1" gradientUnits="userSpaceOnUse" gradientTransform="translate(512 220) rotate(122.413) scale(672.886 701.306)">
      <stop stop-color="#FFFFFF"/>
      <stop offset="0.55" stop-color="#FCFCF8"/>
      <stop offset="1" stop-color="#F3F3EC"/>
    </radialGradient>
  </defs>
</svg>
